<?xml version="1.0" encoding="UTF-8" standalone="no"?>
<svg
   xmlns:dc="http://purl.org/dc/elements/1.1/"
   xmlns:cc="http://creativecommons.org/ns#"
   xmlns:rdf="http://www.w3.org/1999/02/22-rdf-syntax-ns#"
   xmlns:svg="http://www.w3.org/2000/svg"
   xmlns="http://www.w3.org/2000/svg"
   version="1.1"
   id="svg2"
   viewBox="0 0 447.90386 236.73228"
   height="66.811111mm"
   width="126.40842mm">
  <defs
     id="defs4" />
  <metadata
     id="metadata7">
    <rdf:RDF>
      <cc:Work
         rdf:about="">
        <dc:format>image/svg+xml</dc:format>
        <dc:type
           rdf:resource="http://purl.org/dc/dcmitype/StillImage" />
        <dc:title></dc:title>
      </cc:Work>
    </rdf:RDF>
  </metadata>
  <g
     transform="translate(-180.89853,-23.660136)"
     id="layer1">
    <path
       transform="translate(184.89853,56.392406)"
       id="path4226"
       d="m 196.00003,63.552743 -1e-5,122.447277 c 0,5.54 -4.46,10 -10,10 l -172.000019,0 c -5.5400009,0 -10.0000015,-4.46 -10.0000015,-10 l 0,-172.000018 c 0,-5.5400005 4.4600006,-10.0000011 10.0000015,-10.0000011 l 0,0 122.357439,0"
       style="fill:none;fill-opacity:1;stroke:#000000;stroke-width:16;stroke-linecap:butt;stroke-linejoin:round;stroke-miterlimit:4;stroke-dasharray:none;stroke-opacity:1" />
    <path
       id="path4140"
       d="m 252.89852,60.392403 0,191.999977"
       style="fill:none;fill-rule:evenodd;stroke:#000000;stroke-width:8.00147915;stroke-linecap:butt;stroke-linejoin:miter;stroke-miterlimit:4;stroke-dasharray:none;stroke-opacity:1" />
    <path
       id="path4140-9"
       d="m 317.25565,60.749546 0,191.999974"
       style="fill:none;fill-rule:evenodd;stroke:#000000;stroke-width:8.00147915;stroke-linecap:butt;stroke-linejoin:miter;stroke-miterlimit:4;stroke-dasharray:none;stroke-opacity:1" />
    <path
       id="path4140-8"
       d="m 376.71994,123.89168 -191.99998,0"
       style="fill:none;fill-rule:evenodd;stroke:#000000;stroke-width:8.00147915;stroke-linecap:butt;stroke-linejoin:miter;stroke-miterlimit:4;stroke-dasharray:none;stroke-opacity:1" />
    <path
       id="path4140-8-0"
       d="m 380.89851,188.39238 -191.99998,0"
       style="fill:none;fill-rule:evenodd;stroke:#000000;stroke-width:8.00147915;stroke-linecap:butt;stroke-linejoin:miter;stroke-miterlimit:4;stroke-dasharray:none;stroke-opacity:1" />
    <path
       id="path4174"
       d="m 628.80239,252.3924 -176.36831,0 c -5.54,0 -10,-4.46 -10,-10 l 0,-172.000008 c 0,-5.54 4.46,-10 10,-10 l 0,0 176.36831,0"
       style="fill:none;fill-opacity:1;stroke:#000000;stroke-width:16;stroke-linecap:butt;stroke-linejoin:round;stroke-miterlimit:4;stroke-dasharray:none;stroke-opacity:1" />
    <rect
       transform="matrix(0.90667703,-0.4218255,0.4218255,0.90667703,0,0)"
       y="193.03114"
       x="292.22684"
       height="57.111835"
       width="55.778492"
       id="rect4228"
       style="fill:#76ff03;fill-opacity:1;stroke:#000000;stroke-width:6.86400045;stroke-linecap:butt;stroke-linejoin:round;stroke-miterlimit:4;stroke-dasharray:none;stroke-opacity:1" />
    <path
       id="path4162"
       d="M 447.05867,91.01293 C 446.9324,70.809873 448.77613,64.869519 470.99949,64.869518"
       style="fill:none;fill-rule:evenodd;stroke:#000000;stroke-width:5.4000001;stroke-linecap:butt;stroke-linejoin:miter;stroke-miterlimit:4;stroke-dasharray:none;stroke-opacity:1" />
    <path
       id="path4162-1"
       d="m 473.04284,248.11015 c -20.20306,0.12627 -26.14341,-1.71746 -26.14341,-23.94082"
       style="fill:none;fill-rule:evenodd;stroke:#000000;stroke-width:5.4000001;stroke-linecap:butt;stroke-linejoin:miter;stroke-miterlimit:4;stroke-dasharray:none;stroke-opacity:1" />
    <path
       transform="translate(180.89853,23.660128)"
       id="path4194"
       d="m 16.377389,132.5114 0,-28.20135 25.712998,0 25.712998,0 0,28.20135 0,28.20136 -25.712998,0 -25.712998,0 0,-28.20136 z"
       style="fill:#ff9800;fill-opacity:1;stroke:#000000;stroke-width:4.1472578;stroke-linecap:butt;stroke-linejoin:round;stroke-miterlimit:4;stroke-dasharray:none;stroke-opacity:1" />
    <path
       transform="translate(180.89853,23.660128)"
       id="path4196"
       d="m 140.79512,194.73243 0,-25.72516 25.31026,0 25.31026,0 -0.21935,25.50564 -0.21935,25.50563 -25.09091,0.21953 -25.09091,0.21952 0,-25.72516 z"
       style="fill:#f44336;fill-opacity:1;stroke:#000000;stroke-width:4.1472578;stroke-linecap:butt;stroke-linejoin:round;stroke-miterlimit:4;stroke-dasharray:none;stroke-opacity:1" />
  </g>
</svg>
